<?xml version="1.0" encoding="UTF-8"?>
<svg xmlns="http://www.w3.org/2000/svg" xmlns:xlink="http://www.w3.org/1999/xlink" width="67.5pt" height="30.000001pt" viewBox="0 0 67.5 30.000001" version="1.2">
<defs>
<clipPath id="clip1">
  <path d="M 23.859375 6.359375 L 60.382812 6.359375 L 60.382812 27 L 23.859375 27 Z M 23.859375 6.359375 "/>
</clipPath>
<clipPath id="clip2">
  <path d="M 7.152344 7 L 19 7 L 19 25 L 7.152344 25 Z M 7.152344 7 "/>
</clipPath>
<clipPath id="clip3">
  <path d="M 14 5 L 33 5 L 33 25.675781 L 14 25.675781 Z M 14 5 "/>
</clipPath>
<clipPath id="clip4">
  <path d="M 15 1.324219 L 23 1.324219 L 23 10 L 15 10 Z M 15 1.324219 "/>
</clipPath>
</defs>
<g id="surface1">
<g clip-path="url(#clip1)" clip-rule="nonzero">
<path style=" stroke:none;fill-rule:nonzero;fill:rgb(18.818665%,18.818665%,18.818665%);fill-opacity:1;" d="M 60.34375 6.863281 C 59.476562 6.621094 58.570312 6.480469 57.625 6.472656 C 53.796875 6.433594 50.453125 10.179688 48.703125 13.21875 C 36.277344 7.882812 31.769531 7.867188 27.566406 7.039062 C 29.191406 3.75 33.121094 3.449219 33.121094 3.449219 C 26.113281 1.292969 22.078125 5.226562 20.933594 6.589844 C 19.414062 6.652344 17.941406 6.8125 16.550781 7.050781 C 17.589844 8.5625 18.386719 10.25 18.867188 11.929688 C 20.242188 16.773438 18.714844 21.226562 15.710938 24.890625 C 17.871094 25.359375 20.230469 25.628906 22.707031 25.65625 C 23.191406 25.660156 23.667969 25.644531 24.140625 25.617188 C 26.6875 26.867188 30.75 27.898438 35.363281 25.425781 C 35.363281 25.425781 32.960938 25.628906 30.609375 24.3125 C 33.363281 23.355469 38.515625 23.738281 48.414062 18.964844 C 50.039062 22.238281 53.449219 26.222656 57.425781 26.265625 C 58.371094 26.273438 59.28125 26.152344 60.152344 25.921875 C 55.894531 24.71875 52.800781 20.863281 52.847656 16.320312 C 52.890625 11.777344 56.0625 7.984375 60.34375 6.863281 "/>
</g>
<g clip-path="url(#clip2)" clip-rule="nonzero">
<path style=" stroke:none;fill-rule:nonzero;fill:rgb(18.818665%,18.818665%,18.818665%);fill-opacity:1;" d="M 18.363281 24.402344 C 18.011719 25.097656 16.882812 24.585938 16.054688 24.324219 C 15.394531 24.117188 14.546875 23.832031 13.960938 23.4375 C 12.230469 22.269531 11.113281 20.527344 9.613281 19.144531 C 9.28125 18.835938 8.90625 18.359375 8.511719 18.109375 C 8.101562 17.847656 7.605469 17.96875 7.429688 17.421875 C 7.171875 16.617188 7.980469 11.929688 8.628906 11.65625 C 8.910156 11.539062 9.0625 11.820312 9.273438 11.96875 C 9.46875 12.101562 9.738281 12.152344 9.964844 12.1875 C 10.519531 12.273438 11.082031 12.203125 11.640625 12.203125 C 14.511719 12.214844 15.972656 8.238281 17.503906 7.589844 C 17.503906 7.589844 18.84375 23.449219 18.363281 24.402344 "/>
</g>
<g clip-path="url(#clip3)" clip-rule="nonzero">
<path style=" stroke:none;fill-rule:nonzero;fill:rgb(18.818665%,18.818665%,18.818665%);fill-opacity:1;" d="M 17.421875 7.648438 C 18.867188 6.558594 20.386719 6.335938 22.4375 6.101562 C 24.679688 5.84375 26.980469 6.035156 29.214844 6.308594 C 29.359375 6.324219 29.503906 6.34375 29.652344 6.367188 C 30.371094 8.019531 33.257812 10.320312 31.714844 17.566406 C 30.171875 24.816406 24.800781 26.238281 24.066406 26.613281 C 23.902344 26.566406 22.570312 25.789062 22.40625 25.730469 C 21.640625 25.46875 18.316406 25.007812 17.542969 24.746094 C 16.671875 24.449219 15.707031 20.867188 15.25 19.566406 C 14.910156 18.585938 14.691406 17.5625 14.429688 16.558594 C 14.101562 15.28125 14.09375 14.1875 14.285156 12.886719 C 14.605469 10.707031 15.972656 8.742188 17.421875 7.648438 "/>
</g>
<g clip-path="url(#clip4)" clip-rule="nonzero">
<path style=" stroke:none;fill-rule:nonzero;fill:rgb(18.818665%,18.818665%,18.818665%);fill-opacity:1;" d="M 17.78125 9.804688 C 17.222656 9.535156 16.925781 7.496094 16.886719 7.144531 C 16.65625 4.988281 15.382812 2.042969 15.195312 1.847656 C 14.707031 1.320312 17.132812 2.09375 17.863281 2.484375 C 18.566406 2.859375 19.3125 3.296875 20.050781 3.894531 C 20.957031 4.628906 21.746094 5.640625 22.054688 6.636719 C 22.054688 6.636719 22.15625 7.691406 20.808594 8.433594 C 19.457031 9.171875 18.394531 10.105469 17.78125 9.804688 "/>
</g>
<path style=" stroke:none;fill-rule:nonzero;fill:rgb(18.818665%,18.818665%,18.818665%);fill-opacity:1;" d="M 15.003906 11.625 C 14.445312 11.355469 14.148438 9.316406 14.113281 8.964844 C 13.878906 6.808594 12.605469 3.863281 12.417969 3.664062 C 11.929688 3.140625 14.355469 3.914062 15.085938 4.304688 C 15.789062 4.679688 16.535156 5.117188 17.273438 5.714844 C 18.183594 6.449219 18.96875 7.460938 19.28125 8.457031 C 19.28125 8.457031 19.378906 9.511719 18.03125 10.253906 C 16.679688 10.992188 15.617188 11.925781 15.003906 11.625 "/>
</g>
</svg>
